<svg version="1.1" id="Layer_1" xmlns="http://www.w3.org/2000/svg" xmlns:xlink="http://www.w3.org/1999/xlink" x="0px" y="0px"
	 width="100%" viewBox="0 0 1024 1024" enable-background="new 0 0 1024 1024" xml:space="preserve">
<path fill="#000000" opacity="1.000000" stroke="none" 
	d="
M965.999390,792.539307 
	C968.287292,814.931091 963.898193,835.216125 951.969604,854.038147 
	C939.800903,873.239075 921.135681,882.741089 900.906189,890.389343 
	C886.770203,895.733826 871.947449,894.660706 857.405090,894.788635 
	C803.077637,895.266479 748.744202,895.265137 694.413879,895.116211 
	C669.840881,895.048828 647.393066,888.546509 629.083984,871.035889 
	C622.008484,864.268982 616.678833,856.225098 611.739807,847.919861 
	C596.475525,822.251526 584.443359,794.915039 571.014709,768.301453 
	C539.421570,705.688538 507.381378,643.310547 474.265656,581.486755 
	C469.864716,573.270691 466.305603,564.597107 461.238922,556.742981 
	C457.927094,551.609131 458.085144,546.627563 460.327423,541.110168 
	C468.684723,520.546570 478.455261,500.686981 489.370239,481.375153 
	C494.615021,472.095520 499.104431,462.416992 504.568451,453.238983 
	C507.732178,447.924835 508.370087,441.589447 509.808472,435.608490 
	C510.357117,433.327301 510.183929,430.184174 513.561584,429.893951 
	C516.615417,429.631531 517.760742,432.203339 518.914062,434.415283 
	C538.858765,472.667236 559.417664,510.615540 578.560486,549.265137 
	C606.580872,605.838562 634.782471,662.319763 663.254456,718.664795 
	C673.621704,739.181335 684.274658,759.549316 693.982849,780.392700 
	C694.823853,782.198242 695.887390,783.903992 696.902344,785.623840 
	C699.011841,789.198792 701.903198,790.785828 706.313049,790.795776 
	C740.138916,790.872009 773.945068,790.187683 807.755066,789.193176 
	C818.373230,788.880920 829.032166,790.195862 839.679932,790.507324 
	C843.013672,790.604797 847.108582,792.206360 849.504822,788.774963 
	C852.042908,785.140442 848.050537,782.719788 846.678284,779.961548 
	C831.993896,750.443909 817.247437,720.956543 802.378052,691.531677 
	C782.393799,651.984802 763.276978,612.005371 742.639160,572.782654 
	C716.572815,523.242920 691.441772,473.222351 666.321228,423.195923 
	C646.436340,383.596100 625.895020,344.326263 605.936279,304.763062 
	C599.030396,291.073792 591.461243,277.750305 584.469299,264.127075 
	C575.166077,246.000656 561.152222,235.166870 540.775024,232.483170 
	C523.494324,230.207275 506.191528,230.873947 488.903473,231.645157 
	C484.501465,231.841537 480.493011,234.741364 476.641815,237.044128 
	C463.526672,244.886215 452.605988,254.954208 445.669800,268.815643 
	C426.661682,306.802094 407.573181,344.746033 388.269135,382.584747 
	C355.337585,447.135406 322.340546,511.652740 289.781036,576.394836 
	C259.020233,637.560425 227.347977,698.267761 196.031403,759.153381 
	C192.222763,766.558167 188.110672,773.806396 184.186371,781.152405 
	C182.939774,783.485901 181.811310,785.889709 181.538651,788.490845 
	C183.180893,790.568726 185.308487,789.960876 187.218216,789.962952 
	C241.049179,790.021301 294.884247,789.674683 348.709290,790.257629 
	C373.211884,790.523010 397.685577,789.511658 422.172882,789.881104 
	C429.553406,789.992493 436.718109,788.311584 444.005493,787.755188 
	C450.375824,787.268860 451.451172,789.021484 448.867096,794.956787 
	C448.800812,795.109070 448.719635,795.256470 448.631226,795.397278 
	C437.622406,812.923096 430.445770,832.486511 419.598938,850.092163 
	C406.706787,871.017578 389.144714,886.131531 365.106354,892.772156 
	C355.214081,895.504761 344.891754,894.861572 334.795990,894.986389 
	C298.302094,895.437317 261.800903,895.320068 225.302383,895.361694 
	C204.482834,895.385437 183.648636,894.783386 162.846359,895.366577 
	C108.113029,896.901001 73.896667,856.964233 65.590797,814.231750 
	C63.041733,801.117188 65.650963,789.079285 70.754578,777.306580 
	C84.417641,745.789612 101.264328,715.830750 116.221130,684.947205 
	C147.378235,620.612488 181.008331,557.539795 213.536621,493.906128 
	C241.137390,439.911835 268.163147,385.627991 295.745178,331.627930 
	C318.326874,287.417542 339.775238,242.637711 362.790649,198.656845 
	C370.638611,183.659927 378.140503,168.243317 390.039215,155.756653 
	C402.425568,142.758224 415.969910,131.831802 434.862885,129.894745 
	C445.980316,128.754883 457.130219,128.166412 468.260956,128.027390 
	C497.588959,127.661087 526.924988,127.634453 556.254822,127.863495 
	C569.561951,127.967415 582.842529,129.225327 596.054138,130.982559 
	C616.578003,133.712387 631.849121,145.205338 645.273682,160.050186 
	C658.557922,174.739929 666.683289,192.522522 675.721680,209.763657 
	C691.885620,240.597260 707.042969,271.941254 723.242981,302.766113 
	C741.140320,336.820648 757.989563,371.428589 775.127686,405.878845 
	C796.202393,448.241974 818.425598,490.016724 839.765259,532.239014 
	C859.076538,570.447876 880.194031,607.738098 898.278198,646.557312 
	C915.241272,682.970093 934.016724,718.446045 952.599609,754.028992 
	C958.887512,766.069214 963.136353,778.824951 965.999390,792.539307 
z"/>
</svg>